# xmcd
#
# Track frame offsets:
#	150
#	15232
#	28837
#	42740
#	58602
#	72712
#	85327
#	99817
#	113112
#	127142
#
# Disc length: 1870 seconds
#
# Revision: 1
# Processed by: cddbd v1.5.2PL0 Copyright (c) Steve Scherf et al.
# Submitted via: EasyCDDAExtractor 12.0.1.1
#
DISCID=88074c0a
DTITLE=Sanger D. "Whitey" Shafer - So Good For So Long
DYEAR=1997
DGENRE=Country
TTITLE0=All My Ex's Live In Texas
TTITLE1=That's The Way Love Goes
TTITLE2=Back In Waco
TTITLE3=So Good For So Long
TTITLE4=X-Hole-Itus
TTITLE5=Heaven Was A Drink Of Wine
TTITLE6=This Time Of Day
TTITLE7=Birmingham Turnaround
TTITLE8=You Hurt Me
TTITLE9=Gone To Nashville
EXTD=
EXTT0=
EXTT1=
EXTT2=
EXTT3=
EXTT4=
EXTT5=
EXTT6=
EXTT7=
EXTT8=
EXTT9=
PLAYORDER=
